<svg width="96" height="96" viewBox="0 0 96 96" fill="none" xmlns="http://www.w3.org/2000/svg">
  <rect x="8" y="8" width="80" height="80" rx="22" fill="#F0EDE6" stroke="#D0C9BC" stroke-width="2"/>
  <path d="M48 25C38.6112 25 31 32.6112 31 42V46.5C31 47.8807 32.1193 49 33.5 49H62.5C63.8807 49 65 47.8807 65 46.5V42C65 32.6112 57.3888 25 48 25ZM48 30C54.6274 30 60 35.3726 60 42V44H36V42C36 35.3726 41.3726 30 48 30Z" fill="#C4583A"/>
  <rect x="28" y="44" width="40" height="29" rx="10" fill="#28200F"/>
  <circle cx="48" cy="56" r="4" fill="#FFF8F0"/>
  <rect x="46" y="58" width="4" height="9" rx="2" fill="#FFF8F0"/>
</svg>
